<svg xmlns="http://www.w3.org/2000/svg" viewBox="0 0 512 512"><defs><style>.cls-1{fill:#333;}.cls-2{fill:#fff;}.cls-3{fill:#e5e5e5;fill-rule:evenodd;}.cls-4{fill:#ff8300;}</style></defs><title>Asset 6</title><g id="Layer_2" data-name="Layer 2"><g id="Layer_1-2" data-name="Layer 1"><rect class="cls-1" width="512" height="512" rx="73"/><path class="cls-2" d="M104.67,324.78v13.39H97.6V304.71h14.71c7.29,0,11.22,4,11.22,9.19,0,4.49-2.44,6.92-4.86,7.92,1.66.61,4.16,2.33,4.16,8.32v1.65a26.67,26.67,0,0,0,.48,6.38h-6.86c-.59-1.45-.7-4-.7-7.51v-.49c0-3.66-.92-5.39-6.32-5.39Zm0-5.76h6.07c4,0,5.49-1.51,5.49-4.3s-1.78-4.25-5.32-4.25h-6.24Z"/><path class="cls-2" d="M180.18,323.74h-16v8.5h17.66l-.86,5.93H157.15V304.71h23.73v5.93H164.17v7.17h16Z"/><path class="cls-2" d="M214.18,338.17V304.71h9c4.18,7.51,11.9,21.07,13.44,24.71h.09c-.38-3.49-.37-9.3-.37-14.79v-9.92h6.56v33.46h-8.51c-3.59-6.53-12.15-22.1-13.81-26h-.09c.24,2.93.32,9.8.32,15.8v10.17Z"/><path class="cls-2" d="M285.17,310.64H275v-5.93h27.54v5.93H292.41v27.53h-7.24Z"/><path class="cls-2" d="M336.83,330.45l-2.61,7.72h-7.11l11.36-33.46h9.09l11.86,33.46h-7.61l-2.75-7.72Zm10.67-5.94c-2.37-7.06-3.89-11.57-4.7-14.58h-.05c-.82,3.3-2.49,8.55-4.4,14.58Z"/><path class="cls-2" d="M390.89,304.71h7.23v27.53h16.67l-.82,5.93H390.89Z"/><path class="cls-3" d="M127.72,358.6h13.87v-.48a.48.48,0,0,1,.48-.48H146a.49.49,0,0,1,.49.48v.48h13.84v-.48a.49.49,0,0,1,.48-.48h3.9a.48.48,0,0,1,.48.48v.48H179v-.48a.48.48,0,0,1,.48-.48h3.9a.49.49,0,0,1,.48.48v.48H197.7v-.48a.49.49,0,0,1,.49-.48h3.89a.48.48,0,0,1,.48.48v.48h13.85v-.48a.49.49,0,0,1,.48-.48h3.9a.49.49,0,0,1,.48.48v.48h13.85v-.48a.48.48,0,0,1,.48-.48h3.89a.48.48,0,0,1,.48.48v.48h13.85v-.48a.49.49,0,0,1,.48-.48h3.9a.49.49,0,0,1,.48.48v.48h13.85v-.48a.48.48,0,0,1,.48-.48h3.9a.49.49,0,0,1,.48.48v.48h13.84v-.48a.49.49,0,0,1,.48-.48h3.9a.48.48,0,0,1,.48.48v.48h13.84v-.48a.49.49,0,0,1,.49-.48h3.89a.49.49,0,0,1,.49.48v.48h13.84v-.48a.49.49,0,0,1,.48-.48H333a.48.48,0,0,1,.48.48v.48h13.85v-.48a.48.48,0,0,1,.48-.48h3.9a.49.49,0,0,1,.48.48v.48h13.84v-.48a.49.49,0,0,1,.49-.48h3.89a.49.49,0,0,1,.49.48v.48h13.84v-.48h0v0h0v0h0v0h.08v0h4.27a.49.49,0,0,1,.48.48v.61a26.27,26.27,0,0,1,14.27,6l.51-.51a.5.5,0,0,1,.68,0l2.76,2.77a.48.48,0,0,1,0,.67l-.53.52a26.18,26.18,0,0,1,5.91,14.26H414a.49.49,0,0,1,.48.48v3.9a.49.49,0,0,1-.48.48h-.74a26.18,26.18,0,0,1-5.91,14.26l.53.51a.51.51,0,0,1,0,.69l-2.76,2.76a.5.5,0,0,1-.68,0l-.51-.51a26.11,26.11,0,0,1-14.27,6v.62a.49.49,0,0,1-.48.48h-4.27v0h0v0h0v0h0v0h0v0h0v-.49H370.92v.49a.49.49,0,0,1-.49.48h-3.89a.49.49,0,0,1-.49-.48v-.49H352.21v.49a.49.49,0,0,1-.48.48h-3.9a.48.48,0,0,1-.48-.48v-.49H333.5v.49a.48.48,0,0,1-.48.48h-3.9a.49.49,0,0,1-.48-.48v-.49H314.8v.49a.49.49,0,0,1-.49.48h-3.89a.49.49,0,0,1-.49-.48v-.49H296.09v.49a.48.48,0,0,1-.48.48h-3.9a.49.49,0,0,1-.48-.48v-.49H277.39v.49a.49.49,0,0,1-.48.48H273a.48.48,0,0,1-.48-.48v-.49H258.68v.49a.49.49,0,0,1-.48.48h-3.9a.49.49,0,0,1-.48-.48v-.49H240v.49a.48.48,0,0,1-.48.48H235.6a.48.48,0,0,1-.48-.48v-.49H221.27v.49a.49.49,0,0,1-.48.48h-3.9a.49.49,0,0,1-.48-.48v-.49H202.56v.49a.48.48,0,0,1-.48.48h-3.89a.49.49,0,0,1-.49-.48v-.49H183.86v.49a.49.49,0,0,1-.48.48h-3.9a.48.48,0,0,1-.48-.48v-.49H165.15v.49a.48.48,0,0,1-.48.48h-3.9a.49.49,0,0,1-.48-.48v-.49H146.45v.49a.49.49,0,0,1-.49.48h-3.89a.48.48,0,0,1-.48-.48v-.49H127.72v.49a.48.48,0,0,1-.48.48h-3.9a.49.49,0,0,1-.48-.48V411a26.11,26.11,0,0,1-14.27-6l-.51.51a.5.5,0,0,1-.68,0l-2.75-2.76a.49.49,0,0,1,0-.69l.52-.51a26.18,26.18,0,0,1-5.91-14.26h-.73a.49.49,0,0,1-.49-.48v-3.9a.49.49,0,0,1,.49-.48h.73a26.18,26.18,0,0,1,5.91-14.26l-.52-.52a.47.47,0,0,1,0-.67l2.75-2.77a.5.5,0,0,1,.68,0l.51.52a26.21,26.21,0,0,1,14.27-6v-.61a.49.49,0,0,1,.48-.48h3.9a.48.48,0,0,1,.48.48v.48Zm258.76,5.29H126c-12.33,0-22.34,10.1-21.51,22.41a21.07,21.07,0,0,0,21,19.59H386.48c12.34,0,22.35-10.1,21.52-22.41a21.07,21.07,0,0,0-20.95-19.59Z"/><path class="cls-3" d="M128.26,366.94a18.4,18.4,0,0,1,4.12,1.1l.56-1a.6.6,0,0,1,.81-.21l3.45,2a.63.63,0,0,1,.23.87l-.53.91a0,0,0,0,0,0,.06,18.36,18.36,0,0,1,3,3,0,0,0,0,0,.06,0l.91-.53a.63.63,0,0,1,.87.23l2,3.41a.65.65,0,0,1-.23.88l-.91.52a0,0,0,0,0,0,.06,18.08,18.08,0,0,1,1.08,4,0,0,0,0,0,.05,0h1a.63.63,0,0,1,.63.63v3.94a.63.63,0,0,1-.63.63h-1a0,0,0,0,0-.05,0,17.79,17.79,0,0,1-1.1,4.08l1,.57a.59.59,0,0,1,.22.8l-2,3.45a.65.65,0,0,1-.88.23l-.91-.52a0,0,0,0,0-.06,0,18.32,18.32,0,0,1-3,3l.57,1a.59.59,0,0,1-.21.81l-3.49,2a.61.61,0,0,1-.81-.22l-.56-1a17.54,17.54,0,0,1-4.08,1.09.05.05,0,0,0,0,.05v1.06a.64.64,0,0,1-.64.63h-3.93a.64.64,0,0,1-.64-.63v-1.06a.07.07,0,0,0,0-.05,17.41,17.41,0,0,1-4.08-1.09l-.57,1a.6.6,0,0,1-.8.22l-3.49-2a.6.6,0,0,1-.22-.81l.57-1a18.67,18.67,0,0,1-3-3,.06.06,0,0,0-.07,0l-.91.52a.63.63,0,0,1-.87-.23l-2-3.45a.59.59,0,0,1,.22-.8l1-.57a17.3,17.3,0,0,1-1.1-4.08s0,0,0,0h-1a.64.64,0,0,1-.64-.64v-3.93a.63.63,0,0,1,.63-.63h1.06s0,0,0,0a17.56,17.56,0,0,1,1.08-4,0,0,0,0,0,0-.06l-.91-.52a.65.65,0,0,1-.24-.88l2-3.4a.65.65,0,0,1,.88-.24l.9.53a.06.06,0,0,0,.07,0,18.26,18.26,0,0,1,3-3l-.57-1a.59.59,0,0,1,.22-.8l3.49-2a.59.59,0,0,1,.8.21l.57,1A17.41,17.41,0,0,1,123,367a.07.07,0,0,0,0-.05v-1a.64.64,0,0,1,.64-.64h3.93a.64.64,0,0,1,.64.64v1.09Z"/><path class="cls-3" d="M258.84,366.94A18.12,18.12,0,0,1,263,368l.57-1a.59.59,0,0,1,.8-.21l3.5,2a.59.59,0,0,1,.21.8l-.57,1a17.86,17.86,0,0,1,3,3l1-.58a.59.59,0,0,1,.8.22l2,3.45a.65.65,0,0,1-.24.88l-.9.52s0,0,0,.06a18.1,18.1,0,0,1,1.09,4,0,0,0,0,0,0,0h1a.64.64,0,0,1,.64.64v3.93a.63.63,0,0,1-.63.63h-1.06a0,0,0,0,0,0,0,18.87,18.87,0,0,1-1.1,4.08l1,.57a.59.59,0,0,1,.21.8l-2,3.5a.58.58,0,0,1-.8.21l-1-.57a18.24,18.24,0,0,1-3,3l.57,1a.6.6,0,0,1-.21.81l-3.5,2a.6.6,0,0,1-.8-.22l-.57-1a17.33,17.33,0,0,1-4.07,1.09s-.05,0-.05.05v1.06a.63.63,0,0,1-.63.63h-3.94a.63.63,0,0,1-.63-.63v-1.06s0,0,0-.05a17.46,17.46,0,0,1-4.07-1.09l-.57,1a.6.6,0,0,1-.8.22l-3.5-2a.6.6,0,0,1-.21-.81l.57-1a17.88,17.88,0,0,1-3-3,.06.06,0,0,0-.07,0l-.91.52a.63.63,0,0,1-.87-.23l-2-3.45a.58.58,0,0,1,.21-.8l1-.57a18.31,18.31,0,0,1-1.1-4.08,0,0,0,0,0,0,0h-1a.64.64,0,0,1-.64-.64v-3.93a.63.63,0,0,1,.63-.63h1.05a0,0,0,0,0,0,0,18.64,18.64,0,0,1,1.08-4,0,0,0,0,0,0-.06l-.9-.52a.65.65,0,0,1-.24-.88l2-3.41a.64.64,0,0,1,.87-.23l.91.53s0,0,.06,0a17.94,17.94,0,0,1,3-3l-.57-1a.59.59,0,0,1,.21-.8l3.5-2a.59.59,0,0,1,.8.21l.57,1a17.46,17.46,0,0,1,4.07-1.09s0,0,0-.05v-1a.64.64,0,0,1,.64-.64h3.93a.64.64,0,0,1,.63.64v1.09Z"/><path class="cls-3" d="M389.12,366.94a18.4,18.4,0,0,1,4.12,1.1l.57-1a.59.59,0,0,1,.8-.21l3.5,2a.6.6,0,0,1,.21.8l-.58,1a18.3,18.3,0,0,1,3,3l1-.58a.6.6,0,0,1,.8.22l2,3.45a.64.64,0,0,1-.23.88l-.91.52a0,0,0,0,0,0,.06,17.56,17.56,0,0,1,1.08,4s0,0,.05,0h1.06a.63.63,0,0,1,.63.63v3.93a.64.64,0,0,1-.64.64h-1.05s-.05,0-.05,0a17.3,17.3,0,0,1-1.1,4.08l1,.57a.58.58,0,0,1,.22.8l-2,3.5a.59.59,0,0,1-.8.21l-1-.57a18.69,18.69,0,0,1-3,3l.58,1a.61.61,0,0,1-.21.81l-3.5,2a.6.6,0,0,1-.8-.22l-.57-1a17.41,17.41,0,0,1-4.08,1.09.07.07,0,0,0,0,.05v1.06a.64.64,0,0,1-.64.63h-3.93a.64.64,0,0,1-.64-.63v-1.06a.07.07,0,0,0,0-.05,17.54,17.54,0,0,1-4.08-1.09l-.57,1a.6.6,0,0,1-.8.22l-3.49-2a.6.6,0,0,1-.22-.81l.58-1a18.32,18.32,0,0,1-3-3s0,0-.06,0l-.92.53a.64.64,0,0,1-.87-.24l-2-3.45a.59.59,0,0,1,.22-.8l1-.57a18.3,18.3,0,0,1-1.09-4.08,0,0,0,0,0-.05,0h-1a.64.64,0,0,1-.64-.64v-3.93a.63.63,0,0,1,.63-.63h1.06a0,0,0,0,0,.05,0,17.56,17.56,0,0,1,1.08-4,0,0,0,0,0,0-.06l-.91-.52a.65.65,0,0,1-.23-.88l2-3.4a.64.64,0,0,1,.88-.24l.91.53s.05,0,.06,0a17.94,17.94,0,0,1,3-3l-.58-1a.59.59,0,0,1,.22-.8l3.49-2a.59.59,0,0,1,.8.21l.57,1a17.54,17.54,0,0,1,4.08-1.09.07.07,0,0,0,0-.05v-1a.64.64,0,0,1,.64-.64h3.93a.64.64,0,0,1,.64.64v1.09Z"/><path class="cls-2" d="M120.55,117.26H187c30.53,0,50.16,18.89,50.16,49.37,0,39.15-26.4,56.7-62.95,56.7H141.9L133,275.7H92Zm27.64,72.37h23c15.58,0,24.4-7,24.4-21.52,0-10.42-5.12-17.38-19.08-17.38H155.24Z"/><path class="cls-4" d="M398.39,221.68c-8.57,34.9-32.62,57.64-74,57.64-45.33,0-64.51-29.87-64.51-69,0-47.18,26.14-96.64,82.71-96.64,40.75,0,61.7,24.84,62.64,58.86H362.61c-.16-10.93-4.55-25.24-21.79-25.24-25.92,0-36.47,37.26-36.47,62.88,0,19,5.06,34.85,24.13,34.85,13.45,0,21.69-7.64,27.75-23.31Z"/></g></g></svg>