<?xml version="1.0" encoding="UTF-8"?>
<svg id="Layer_2" data-name="Layer 2" xmlns="http://www.w3.org/2000/svg" viewBox="0 0 463.05 163.36">
  <defs>
    <style>
      .cls-1 {
        font-family: AcuminConcept-Bold, 'Acumin Variable Concept';
        font-size: 25.44px;
        font-variation-settings: 'wght' 700, 'wdth' 100, 'slnt' 0;
        font-weight: 700;
      }

      .cls-1, .cls-2 {
        fill: #fff;
      }

      .cls-2 {
        font-family: AcuminConcept-WideBlackItalic, 'Acumin Variable Concept';
        font-size: 71.54px;
        font-style: italic;
        font-variation-settings: 'wght' 800, 'wdth' 115, 'slnt' 12;
        font-weight: 800;
      }

      .cls-3 {
        letter-spacing: .56em;
      }

      .cls-4 {
        letter-spacing: .02em;
      }

      .cls-5 {
        letter-spacing: -.03em;
      }

      .cls-6 {
        letter-spacing: .57em;
      }

      .cls-7 {
        letter-spacing: .56em;
      }

      .cls-8 {
        letter-spacing: .06em;
      }

      .cls-9 {
        letter-spacing: .56em;
      }

      .cls-10 {
        letter-spacing: .1em;
      }

      .cls-11 {
        letter-spacing: .09em;
      }

      .cls-12 {
        fill: #ff8300;
      }

      .cls-12, .cls-13, .cls-14 {
        fill-rule: evenodd;
        stroke-width: 0px;
      }

      .cls-15 {
        letter-spacing: .06em;
      }

      .cls-16 {
        letter-spacing: .48em;
      }

      .cls-13 {
        fill: #e5e5e5;
      }

      .cls-17 {
        letter-spacing: .56em;
      }

      .cls-18 {
        letter-spacing: .05em;
      }

      .cls-14 {
        fill: #cbcbcb;
      }
    </style>
  </defs>
  <g id="Layer_1-2" data-name="Layer 1">
    <g>
      <text class="cls-1" transform="translate(166.09 156.69)"><tspan class="cls-9" x="0" y="0">R</tspan><tspan class="cls-17" x="31.21" y="0">E</tspan><tspan class="cls-6" x="61.1" y="0">N</tspan><tspan class="cls-16" x="94.8" y="0">T</tspan><tspan class="cls-3" x="122.1" y="0">A</tspan><tspan class="cls-7" x="153.71" y="0">L</tspan></text>
      <path class="cls-12" d="M304.52,59.29l21.63-25.94,100.99,14.16-31.16,63.7-18.22,11.5-2.47-.32-6.77-.87-18.48,9.63-6.34-1.3-2.56.55,11.3,11.4,30.2,9.8s14.44,4.02,22.59-2.78c8.15-6.8,2.92-14.08,2.92-14.08l16.53-16.12-2.11-1.21,9.48-18.82,1.38.39,21.27-45.86-2.83-3.93,11.18-15.18-19.82-22.15-3.52,9.16-39.49-6.03.16-1.54-54.59-8.58-3.25-3.27-8.06-1.61-5.44,6.54-6.87-1.76-78.14,55.82,60.49-1.3h0ZM445.3,18.16l14.81,15.91-51.04,70.33-.96-1.1,47.38-68.93-8.43-10.27,2.42.81-4.18-6.75h0ZM258.73,57.32l24.35-.15,38.28-39.6-10.56,14.52,17.01-17.01,102.81,19.36.88-2.13-109.27-24.28-63.51,49.28h0ZM410.85,106.31l9.64,9.77,9.35-18.61-1.38-.75,14.24-31.98-2.87.93-28.98,40.65h0ZM408.08,110.1l8.56,8.2-10.23,9.9-3.11-11.61,4.78-6.49h0ZM355,12.59l44.42,6.67.19-1.35,38.36,6.13-3.48,7.01-79.48-18.47h0Z"/>
      <polygon class="cls-12" points="360.94 66.63 11.17 66.63 363.38 57.54 360.94 66.63 360.94 66.63"/>
      <path class="cls-13" d="M13.57,133.92h6.34v-.22c0-.12.1-.22.22-.22h1.78c.12,0,.22.1.22.22v.22h6.33v-.22c0-.12.1-.22.22-.22h1.78c.12,0,.22.1.22.22v.22h6.33v-.22c0-.12.1-.22.22-.22h1.78c.12,0,.22.1.22.22v.22h6.33v-.22c0-.12.1-.22.22-.22h1.78c.12,0,.22.1.22.22v.22h6.33v-.22c0-.12.1-.22.22-.22h1.78c.12,0,.22.1.22.22v.22h6.33v-.22c0-.12.1-.22.22-.22h1.78c.12,0,.22.1.22.22v.22h6.33v-.22c0-.12.1-.22.22-.22h1.78c.12,0,.22.1.22.22v.22h6.33v-.22c0-.12.1-.22.22-.22h1.78c.12,0,.22.1.22.22v.22h6.33v-.22c0-.12.1-.22.22-.22h1.78c.12,0,.22.1.22.22v.22h6.33v-.22c0-.12.1-.22.22-.22h1.78c.12,0,.22.1.22.22v.22h6.33v-.22c0-.12.1-.22.22-.22h1.78c.12,0,.22.1.22.22v.22h6.33v-.22c0-.12.1-.22.22-.22h1.78c.12,0,.22.1.22.22v.22h6.33v-.22c0-.12.1-.22.22-.22h1.78c.12,0,.22.1.22.22v.22h6.33v-.22h0s0-.02,0-.02h0v-.02h0s0-.01,0-.01h0s0-.01,0-.01h0s0-.02,0-.02h0s0,0,0,0h0s0,0,0,0h0s0,0,0,0h0s0,0,0,0h0s0,0,0,0h0s0,0,0,0h0s0,0,0,0h0s0,0,0,0h0s0,0,0,0h0s0,0,0,0h0s0,0,0,0h0s0,0,0,0h0s0,0,0,0h0s0,0,0,0h0s0,0,0,0h0s0,0,0,0h0s0,0,0,0h.01s0,0,0,0h0s0,0,0,0h.03s0,0,0,0h0s0,0,0,0h1.78c.12,0,.22.1.22.22v.28c2.46.25,4.72,1.24,6.52,2.75l.23-.23c.09-.09.23-.09.31,0l1.26,1.26c.09.09.09.22,0,.31l-.24.24c1.49,1.81,2.47,4.06,2.7,6.52h.34c.12,0,.22.1.22.22v1.78c0,.12-.1.22-.22.22h-.34c-.23,2.46-1.21,4.71-2.7,6.52l.24.23c.09.09.09.23,0,.31l-1.26,1.26c-.09.08-.23.08-.31,0l-.23-.23c-1.81,1.51-4.06,2.51-6.52,2.75v.28c0,.12-.1.22-.22.22h-1.79s0,0,0,0h-.03s0,0,0,0h0s0,0,0,0h0s0,0,0,0h0s0,0,0,0h0s0,0,0,0h0s0,0,0,0h0s0,0,0,0h0s0,0,0,0h0s0,0,0,0h0s0,0,0,0h0s0,0,0,0h0s0,0,0,0h0s0,0,0,0h0s0,0,0,0h0s0,0,0,0h0s0,0,0,0h0s0,0,0,0h0s0,0,0,0h0s0,0,0,0h0s0-.02,0-.02h0s0-.01,0-.01h0s0,0,0,0h0s0-.02,0-.02h0v-.24h-6.33v.22c0,.12-.1.22-.22.22h-1.78c-.12,0-.22-.1-.22-.22v-.22h-6.33v.22c0,.12-.1.22-.22.22h-1.78c-.12,0-.22-.1-.22-.22v-.22h-6.33v.22c0,.12-.1.22-.22.22h-1.78c-.12,0-.22-.1-.22-.22v-.22h-6.33v.22c0,.12-.1.22-.22.22h-1.78c-.12,0-.22-.1-.22-.22v-.22h-6.33v.22c0,.12-.1.22-.22.22h-1.78c-.12,0-.22-.1-.22-.22v-.22h-6.33v.22c0,.12-.1.22-.22.22h-1.78c-.12,0-.22-.1-.22-.22v-.22h-6.33v.22c0,.12-.1.22-.22.22h-1.78c-.12,0-.22-.1-.22-.22v-.22h-6.33v.22c0,.12-.1.22-.22.22h-1.78c-.12,0-.22-.1-.22-.22v-.22h-6.33v.22c0,.12-.1.22-.22.22h-1.78c-.12,0-.22-.1-.22-.22v-.22h-6.33v.22c0,.12-.1.22-.22.22h-1.78c-.12,0-.22-.1-.22-.22v-.22h-6.33v.22c0,.12-.1.22-.22.22h-1.78c-.12,0-.22-.1-.22-.22v-.22h-6.33v.22c0,.12-.1.22-.22.22h-1.78c-.12,0-.22-.1-.22-.22v-.22h-6.33v.22c0,.12-.1.22-.22.22h-1.78c-.12,0-.22-.1-.22-.22v-.22h-6.34v.22c0,.12-.1.22-.22.22h-1.78c-.12,0-.22-.1-.22-.22v-.28c-2.46-.24-4.72-1.23-6.52-2.75l-.23.23c-.09.08-.23.08-.31,0l-1.26-1.26c-.09-.09-.09-.23,0-.31l.24-.23c-1.49-1.81-2.47-4.06-2.7-6.52H.22c-.12,0-.22-.1-.22-.22v-1.78c0-.12.1-.22.22-.22h.34c.23-2.46,1.21-4.71,2.7-6.52l-.24-.24c-.09-.09-.09-.22,0-.31l1.26-1.26c.08-.09.22-.09.31,0l.23.24c1.81-1.52,4.06-2.51,6.52-2.76v-.28c0-.12.1-.22.22-.22h1.78c.12,0,.22.1.22.22v.22h0ZM131.86,136.34H12.52c-5.28,0-9.6,4.32-9.6,9.6s4.32,9.6,9.6,9.6h119.59c5.28,0,9.6-4.32,9.6-9.6s-4.32-9.6-9.6-9.6h-.26Z"/>
      <path class="cls-13" d="M13.81,137.73c.66.09,1.29.26,1.88.5l.26-.45c.07-.13.24-.17.37-.1l1.6.92c.13.08.17.24.1.37l-.26.45c.51.4.97.87,1.38,1.38l.45-.26c.13-.07.29-.03.37.1l.92,1.6c.07.13.03.29-.1.37l-.45.26c.24.6.41,1.23.5,1.88h.52c.15,0,.27.12.27.27v1.85c0,.15-.12.27-.27.27h-.52c-.09.66-.27,1.29-.5,1.88l.45.26c.13.07.17.24.1.36l-.92,1.6c-.07.13-.24.17-.37.1l-.45-.26c-.4.51-.87.97-1.38,1.38l.26.45c.07.13.03.29-.1.37l-1.6.92c-.13.07-.29.03-.37-.1l-.26-.45c-.6.24-1.23.41-1.88.5v.52c0,.15-.12.27-.27.27h-1.84c-.15,0-.27-.12-.27-.27v-.52c-.66-.09-1.29-.26-1.88-.5l-.26.45c-.07.13-.24.17-.37.1l-1.6-.92c-.13-.08-.17-.24-.1-.37l.26-.45c-.51-.4-.97-.87-1.38-1.38l-.45.26c-.13.08-.29.03-.37-.1l-.92-1.6c-.07-.12-.03-.29.1-.36l.45-.26c-.24-.6-.41-1.23-.5-1.88h-.52c-.15,0-.27-.12-.27-.27v-1.85c0-.15.12-.27.27-.27h.52c.09-.66.27-1.29.5-1.88l-.45-.26c-.13-.08-.17-.24-.1-.37l.92-1.6c.07-.13.24-.17.37-.1l.45.26c.4-.51.87-.97,1.38-1.38l-.26-.45c-.07-.13-.03-.29.1-.37l1.6-.92c.13-.07.29-.03.37.1l.26.45c.6-.24,1.23-.41,1.88-.5v-.52c0-.15.12-.27.27-.27h1.84c.15,0,.27.12.27.27v.52h0Z"/>
      <path class="cls-13" d="M73.51,137.73c.66.09,1.28.26,1.88.5l.26-.45c.07-.13.24-.17.37-.1l1.6.92c.13.08.17.24.1.37l-.26.45c.51.4.97.87,1.38,1.38l.45-.26c.13-.07.29-.03.37.1l.92,1.6c.07.13.03.29-.1.37l-.45.26c.24.6.41,1.23.5,1.88h.52c.15,0,.27.12.27.27v1.85c0,.15-.12.27-.27.27h-.52c-.1.66-.27,1.29-.5,1.88l.45.26c.13.07.17.24.1.36l-.92,1.6c-.07.13-.24.17-.37.1l-.45-.26c-.4.51-.87.97-1.38,1.38l.26.45c.07.13.03.29-.1.37l-1.6.92c-.13.07-.29.03-.37-.1l-.26-.45c-.6.24-1.23.41-1.88.5v.52c0,.15-.12.27-.27.27h-1.85c-.15,0-.27-.12-.27-.27v-.52c-.66-.09-1.29-.26-1.88-.5l-.26.45c-.07.13-.24.17-.37.1l-1.6-.92c-.13-.08-.17-.24-.1-.37l.26-.45c-.51-.4-.97-.87-1.38-1.38l-.45.26c-.13.08-.29.03-.37-.1l-.92-1.6c-.07-.12-.03-.29.1-.36l.45-.26c-.24-.6-.41-1.23-.5-1.88h-.52c-.15,0-.27-.12-.27-.27v-1.85c0-.15.12-.27.27-.27h.52c.1-.66.27-1.29.5-1.88l-.45-.26c-.13-.08-.17-.24-.1-.37l.92-1.6c.07-.13.24-.17.37-.1l.45.26c.4-.51.87-.97,1.38-1.38l-.26-.45c-.07-.13-.03-.29.1-.37l1.6-.92c.13-.07.29-.03.37.1l.26.45c.6-.24,1.23-.41,1.88-.5v-.52c0-.15.12-.27.27-.27h1.85c.15,0,.27.12.27.27v.52h0Z"/>
      <path class="cls-13" d="M133.06,137.73c.66.09,1.29.26,1.88.5l.26-.45c.07-.13.24-.17.37-.1l1.6.92c.13.08.17.24.1.37l-.26.45c.51.4.97.87,1.38,1.38l.46-.26c.13-.07.29-.03.36.1l.92,1.6c.07.13.03.29-.1.37l-.45.26c.24.6.41,1.23.5,1.88h.52c.15,0,.27.12.27.27v1.85c0,.15-.12.27-.27.27h-.52c-.09.66-.27,1.29-.5,1.88l.45.26c.13.07.17.24.1.36l-.92,1.6c-.07.13-.24.17-.36.1l-.45-.26c-.41.51-.87.97-1.38,1.38l.26.45c.07.13.03.29-.1.37l-1.6.92c-.13.07-.29.03-.37-.1l-.26-.45c-.6.24-1.23.41-1.88.5v.52c0,.15-.12.27-.27.27h-1.84c-.15,0-.27-.12-.27-.27v-.52c-.66-.09-1.29-.26-1.88-.5l-.26.45c-.07.13-.24.17-.37.1l-1.6-.92c-.13-.08-.17-.24-.1-.37l.26-.45c-.51-.4-.97-.87-1.38-1.38l-.45.26c-.13.08-.29.03-.37-.1l-.92-1.6c-.07-.12-.03-.29.1-.36l.45-.26c-.24-.6-.41-1.23-.5-1.88h-.52c-.15,0-.27-.12-.27-.27v-1.85c0-.15.12-.27.27-.27h.52c.09-.66.27-1.29.5-1.88l-.45-.26c-.13-.08-.17-.24-.1-.37l.92-1.6c.07-.13.24-.17.37-.1l.45.26c.4-.51.87-.97,1.38-1.38l-.26-.45c-.07-.13-.03-.29.1-.37l1.6-.92c.13-.07.29-.03.37.1l.26.45c.6-.24,1.23-.41,1.88-.5v-.52c0-.15.12-.27.27-.27h1.84c.15,0,.27.12.27.27v.52h0Z"/>
      <text class="cls-2" transform="translate(4.52 126.3) scale(.85 1)"><tspan class="cls-8" x="0" y="0">P</tspan><tspan class="cls-18" x="59.16" y="0">U</tspan><tspan class="cls-4" x="120.9" y="0">L</tspan><tspan class="cls-15" x="169.55" y="0">C</tspan><tspan class="cls-5" x="232.08" y="0">A</tspan><tspan class="cls-11" x="286.52" y="0">T</tspan><tspan class="cls-10" x="341.46" y="0">T</tspan></text>
      <g>
        <path class="cls-14" d="M51.61,91.99c0-9.69-6.24-15.7-15.96-15.7H14.53l-4.76,26.4h38.91c1.88-2.74,2.93-6.29,2.93-10.7ZM30.64,99.31h-7.32l2.24-12.37h6.77c4.44,0,6.07,2.21,6.07,5.53,0,4.62-2.8,6.84-7.76,6.84Z"/>
        <polygon class="cls-14" points="105.5 76.29 92.35 76.29 87.53 102.69 100.69 102.69 105.5 76.29"/>
        <polygon class="cls-14" points="77.53 76.29 64.33 76.29 59.53 102.69 72.71 102.69 77.53 76.29"/>
        <polygon class="cls-14" points="130.82 76.29 117.58 76.29 112.82 102.69 126.05 102.69 130.82 76.29"/>
        <path class="cls-14" d="M177.64,85.83c5.48,0,6.88,4.55,6.93,8.03h13.56c-.3-10.82-6.96-18.72-19.93-18.72-16.72,0-25.08,13.59-26.18,27.55h14.16c.74-7.74,4.21-16.86,11.45-16.86Z"/>
        <path class="cls-14" d="M229.87,86.66h.19c.21,3.62.78,9.36,1.57,16.03h12.67l-3.9-26.4h-17.29l-12.87,26.4h13.03c2.89-6.62,5.24-12.29,6.6-16.03Z"/>
        <polygon class="cls-14" points="279.08 87.59 292.62 87.59 294.68 76.29 254.4 76.29 252.34 87.59 265.9 87.59 263.19 102.69 276.38 102.69 279.08 87.59"/>
        <polygon class="cls-14" points="325.91 87.59 339.45 87.59 341.51 76.29 301.23 76.29 299.16 87.59 312.73 87.59 310.02 102.69 323.21 102.69 325.91 87.59"/>
      </g>
    </g>
  </g>
</svg>